<?xml version="1.0" encoding="utf-8"?>
<!DOCTYPE svg PUBLIC "-//W3C//DTD SVG 1.1//EN"  "http://www.w3.org/Graphics/SVG/1.1/DTD/svg11.dtd">
<svg version="1.1" xmlns="http://www.w3.org/2000/svg" xmlns:xlink="http://www.w3.org/1999/xlink" font-family="Arial" font-size="12" width="832" height="384">
	<desc>Flowchart diagram model</desc>
	<g id="_fu0_snDDEea5146oo2aJcA">
		<defs>
			<linearGradient id="greyGradient" x1="0%" y1="0%" x2="0%" y2="100%" spreadMethod="pad">
				<stop offset="0%" stop-color="#FFF" stop-opacity="1" />
				<stop offset="100%" stop-color="#E5E5E5" stop-opacity="1" />
				
			</linearGradient>
			<linearGradient id="packageGradient" x1="0%" y1="0%" x2="0%" y2="100%" spreadMethod="pad">
				<stop offset="0%" stop-color="#FFF" stop-opacity="1" />
				<stop offset="100%" stop-color="#EFE9DE" stop-opacity="1" />
				
			</linearGradient>
			<linearGradient id="ActionShapeWidget" x1="0%" y1="0%" x2="0%" y2="100%" spreadMethod="pad">
				<stop offset="0%" stop-color="#FFF" stop-opacity="1" />
				<stop offset="100%" stop-color="#B3E0FF" stop-opacity="1" />
				
			</linearGradient>
			<linearGradient id="StartShapeWidget" x1="0%" y1="0%" x2="0%" y2="100%" spreadMethod="pad">
				<stop offset="0%" stop-color="#c2e08f" stop-opacity="1" />
				<stop offset="100%" stop-color="#7ec601" stop-opacity="1" />
				
			</linearGradient>
			<linearGradient id="DocumentShapeWidget" x1="0%" y1="0%" x2="0%" y2="100%" spreadMethod="pad">
				<stop offset="0%" stop-color="#FFF" stop-opacity="1" />
				<stop offset="100%" stop-color="#f5fffe" stop-opacity="1" />
				
			</linearGradient>
			
		</defs>
		<g id="_JxetkFMBEDSHcr3CC5mv9w" transform="translate(50 55)">
			<rect x="0" y="0" width="100" height="40" rx="20" ry="20" fill="url(#StartShapeWidget)" stroke="#888888" stroke-width="1" />
			<path fill="url(#StartShapeWidget)" stroke-width="1" stroke="#888888" />
			<text y="13" text-anchor="middle" fill="#000000">
				<tspan x="51" dy="12">ADOPEM Bank</tspan>
				
			</text>
			
		</g>
		<g id="_skDUoFMBEDSHcr3CC5mv9w" transform="translate(209 55)">
			<rect x="0" y="0" width="100" height="40" rx="0" ry="0" fill="url(#ActionShapeWidget)" stroke="#888888" stroke-width="1" />
			<text y="7" text-anchor="middle" fill="#000000">
				<tspan x="51" dy="12">Underwriter</tspan>
				<tspan x="51" dy="12">(President)</tspan>
				
			</text>
			
		</g>
		<g id="_wSsJkFMBEDSHcr3CC5mv9w" transform="translate(480 56)">
			<rect x="0" y="0" width="100" height="40" rx="0" ry="0" fill="url(#ActionShapeWidget)" stroke="#888888" stroke-width="1" />
			<text y="13" text-anchor="middle" fill="#000000">
				<tspan x="51" dy="12">Treasurer</tspan>
				
			</text>
			
		</g>
		<g id="_-whFEFMBEDSHcr3CC5mv9w" transform="translate(732 172)">
			<rect x="0" y="0" width="60" height="20" rx="0" ry="0" fill="url(#ActionShapeWidget)" stroke="#888888" stroke-width="1" />
			<text y="3" text-anchor="middle" fill="#000000">
				<tspan x="31" dy="12">Members</tspan>
				
			</text>
			
		</g>
		<g id="_KXyqMFMCEDSHcr3CC5mv9w" transform="translate(732 20)">
			<path d="M1 1L59 1L59 37.0Q45.660000000000004 37.0 35.8 41.8Q18.4 51.400000000000006 1 46.599999999999994L1 1" fill="url(#DocumentShapeWidget)" stroke-width="1" stroke="#888888" />
			<text y="4" text-anchor="middle" fill="#000000">
				<tspan x="31" dy="12">Secretary</tspan>
				<tspan x="31" dy="12">Records</tspan>
				
			</text>
			
		</g>
		<g id="_mmacEFMCEDSHcr3CC5mv9w" transform="translate(720 294)">
			<path d="M1 1L59 1L59 37.0Q45.660000000000004 37.0 35.8 41.8Q18.4 51.400000000000006 1 46.599999999999994L1 1" fill="url(#DocumentShapeWidget)" stroke-width="1" stroke="#888888" />
			<text y="4" text-anchor="middle" fill="#000000">
				<tspan x="31" dy="12">Secretary</tspan>
				<tspan x="31" dy="12">Records</tspan>
				
			</text>
			
		</g>
		<g id="_rJSKUFMCEDSHcr3CC5mv9w" transform="translate(658 246)">
			<rect x="0" y="0" width="70" height="20" rx="0" ry="0" fill="url(#ActionShapeWidget)" stroke="#888888" stroke-width="1" />
			<text y="3" text-anchor="middle" fill="#000000">
				<tspan x="36" dy="12">Pay</tspan>
				
			</text>
			
		</g>
		<g id="_NLD4IFUoEDS5pLVNXzssCw" transform="translate(671 97)">
			<rect x="0" y="0" width="70" height="20" rx="0" ry="0" fill="url(#ActionShapeWidget)" stroke="#888888" stroke-width="1" />
			<text y="3" text-anchor="middle" fill="#000000">
				<tspan x="36" dy="12">Distributes</tspan>
				
			</text>
			
		</g>
		<g id="_fjHNgFUoEDS5pLVNXzssCw" transform="translate(480 272)">
			<rect x="0" y="0" width="100" height="40" rx="0" ry="0" fill="url(#ActionShapeWidget)" stroke="#888888" stroke-width="1" />
			<text y="13" text-anchor="middle" fill="#000000">
				<tspan x="51" dy="12">Treasurer</tspan>
				
			</text>
			
		</g>
		<g id="_iiAnkFUoEDS5pLVNXzssCw" transform="translate(209 273)">
			<rect x="0" y="0" width="100" height="40" rx="0" ry="0" fill="url(#ActionShapeWidget)" stroke="#888888" stroke-width="1" />
			<text y="7" text-anchor="middle" fill="#000000">
				<tspan x="51" dy="12">Underwriter</tspan>
				<tspan x="51" dy="12">(President)</tspan>
				
			</text>
			
		</g>
		<g id="_n0Ch4FUoEDS5pLVNXzssCw" transform="translate(365 62)">
			<rect x="0" y="0" width="68" height="27" rx="0" ry="0" fill="url(#ActionShapeWidget)" stroke="#888888" stroke-width="1" />
			<text y="0" text-anchor="middle" fill="#000000">
				<tspan x="35" dy="12">Hands</tspan>
				<tspan x="35" dy="12">money to</tspan>
				
			</text>
			
		</g>
		<g id="_sVt9UFUoEDS5pLVNXzssCw" transform="translate(365 279)">
			<rect x="0" y="0" width="68" height="27" rx="0" ry="0" fill="url(#ActionShapeWidget)" stroke="#888888" stroke-width="1" />
			<text y="0" text-anchor="middle" fill="#000000">
				<tspan x="35" dy="12">Hands</tspan>
				<tspan x="35" dy="12">money to</tspan>
				
			</text>
			
		</g>
		<g id="_wkNXAFUoEDS5pLVNXzssCw" transform="translate(65 283)">
			<rect x="0" y="0" width="70" height="20" rx="0" ry="0" fill="url(#ActionShapeWidget)" stroke="#888888" stroke-width="1" />
			<text y="3" text-anchor="middle" fill="#000000">
				<tspan x="36" dy="12">Pays</tspan>
				
			</text>
			
		</g>
		<g id="_vKGJ0FMBEDSHcr3CC5mv9w">
			<polyline fill="none" stroke-width="1" stroke="#000" points="150.5,75.5 209.5,75.5" />
			<g transform="translate(209.5,75.5)">
				<g transform="rotate(90)">
					<polyline fill="none" stroke-width="1" stroke="#000" points="-5,10 0,0 5,10" />
					
				</g>
				
			</g>
			
		</g>
		<g id="_IFSRIFUoEDS5pLVNXzssCw">
			<polyline fill="none" stroke-width="1" stroke="#000" points="727.5,294.5 702.5,266.5" />
			<g transform="translate(702.5,266.5)">
				<g transform="rotate(-42)">
					<polyline fill="none" stroke-width="1" stroke="#000" points="-5,10 0,0 5,10" />
					
				</g>
				
			</g>
			
		</g>
		<g id="_WV9hcFUoEDS5pLVNXzssCw">
			<polyline fill="none" stroke-width="1" stroke="#000" points="580.5,84.5 671.5,100.5" />
			<g transform="translate(671.5,100.5)">
				<g transform="rotate(100)">
					<polyline fill="none" stroke-width="1" stroke="#000" points="-5,10 0,0 5,10" />
					
				</g>
				
			</g>
			
		</g>
		<g id="_XpTYoFUoEDS5pLVNXzssCw">
			<polyline fill="none" stroke-width="1" stroke="#000" points="713.5,117.5 754.5,172.5" />
			<g transform="translate(754.5,172.5)">
				<g transform="rotate(143)">
					<polyline fill="none" stroke-width="1" stroke="#000" points="-5,10 0,0 5,10" />
					
				</g>
				
			</g>
			
		</g>
		<g id="_daGSkFUoEDS5pLVNXzssCw">
			<polyline fill="none" stroke-width="1" stroke="#000" points="739.5,70.5 715.5,97.5" />
			<g transform="translate(715.5,97.5)">
				<g transform="rotate(-138)">
					<polyline fill="none" stroke-width="1" stroke="#000" points="-5,10 0,0 5,10" />
					
				</g>
				
			</g>
			
		</g>
		<g id="_hZCNUFUoEDS5pLVNXzssCw">
			<polyline fill="none" stroke-width="1" stroke="#000" points="658.5,263.5 580.5,280.5" />
			<g transform="translate(580.5,280.5)">
				<g transform="rotate(-102)">
					<polyline fill="none" stroke-width="1" stroke="#000" points="-5,10 0,0 5,10" />
					
				</g>
				
			</g>
			
		</g>
		<g id="_qlsxMFUoEDS5pLVNXzssCw">
			<polyline fill="none" stroke-width="1" stroke="#000" points="309.5,75.5 365.5,75.5" />
			<g transform="translate(365.5,75.5)">
				<g transform="rotate(90)">
					<polyline fill="none" stroke-width="1" stroke="#000" points="-5,10 0,0 5,10" />
					
				</g>
				
			</g>
			
		</g>
		<g id="_q8pRkFUoEDS5pLVNXzssCw">
			<polyline fill="none" stroke-width="1" stroke="#000" points="433.5,76.5 480.5,76.5" />
			<g transform="translate(480.5,76.5)">
				<g transform="rotate(90)">
					<polyline fill="none" stroke-width="1" stroke="#000" points="-5,10 0,0 5,10" />
					
				</g>
				
			</g>
			
		</g>
		<g id="_uJ7F4FUoEDS5pLVNXzssCw">
			<polyline fill="none" stroke-width="1" stroke="#000" points="480.5,292.5 433.5,292.5" />
			<g transform="translate(433.5,292.5)">
				<g transform="rotate(-90)">
					<polyline fill="none" stroke-width="1" stroke="#000" points="-5,10 0,0 5,10" />
					
				</g>
				
			</g>
			
		</g>
		<g id="_uvOyYFUoEDS5pLVNXzssCw">
			<polyline fill="none" stroke-width="1" stroke="#000" points="365.5,293.5 309.5,293.5" />
			<g transform="translate(309.5,293.5)">
				<g transform="rotate(-90)">
					<polyline fill="none" stroke-width="1" stroke="#000" points="-5,10 0,0 5,10" />
					
				</g>
				
			</g>
			
		</g>
		<g id="_ykpkwFUoEDS5pLVNXzssCw">
			<polyline fill="none" stroke-width="1" stroke="#000" points="209.5,293.5 135.5,293.5" />
			<g transform="translate(135.5,293.5)">
				<g transform="rotate(-90)">
					<polyline fill="none" stroke-width="1" stroke="#000" points="-5,10 0,0 5,10" />
					
				</g>
				
			</g>
			
		</g>
		<g id="_y_yooFUoEDS5pLVNXzssCw">
			<polyline fill="none" stroke-width="1" stroke="#000" points="100.5,283.5 100.5,95.5" />
			<g transform="translate(100.5,95.5)">
				<g transform="rotate(0)">
					<polyline fill="none" stroke-width="1" stroke="#000" points="-5,10 0,0 5,10" />
					
				</g>
				
			</g>
			
		</g>
		<g id="_68ZS0FUoEDS5pLVNXzssCw">
			<polyline fill="none" stroke-width="1" stroke="#000" points="752.5,192.5 702.5,246.5" />
			<g transform="translate(702.5,246.5)">
				<g transform="rotate(-137)">
					<polyline fill="none" stroke-width="1" stroke="#000" points="-5,10 0,0 5,10" />
					
				</g>
				
			</g>
			
		</g>
		<text x="187" y="70" font-size="13" fill="#000000"></text>
		<text x="722" y="275" font-size="13" fill="#000000"></text>
		<text x="633" y="87" font-size="13" fill="#000000"></text>
		<text x="741" y="140" font-size="13" fill="#000000"></text>
		<text x="734" y="79" font-size="13" fill="#000000"></text>
		<text x="626" y="267" font-size="13" fill="#000000"></text>
		<text x="344" y="70" font-size="13" fill="#000000"></text>
		<text x="464" y="71" font-size="13" fill="#000000"></text>
		<text x="464" y="287" font-size="13" fill="#000000"></text>
		<text x="344" y="288" font-size="13" fill="#000000"></text>
		<text x="179" y="288" font-size="13" fill="#000000"></text>
		<text x="107" y="184" font-size="13" fill="#000000"></text>
		<text x="734" y="214" font-size="13" fill="#000000"></text>
		
	</g>
	
</svg>
